<svg xmlns="http://www.w3.org/2000/svg" version="1.1" xmlns:xlink="http://www.w3.org/1999/xlink" xmlns:svgjs="http://svgjs.dev/svgjs" viewBox="0 0 800 800"><g fill="#b33900"><path d="M88 314H138C166 314 188 336 188 364H138C110 364 88 342 88 314Z " transform="matrix(0.5659981518560665,-0.24025196148408046,0.24025196148408046,0.5659981518560665,-21.553159899240427,180.28139720559656)"></path><path d="M281 116H331C359 116 381 138 381 166H331C303 166 281 144 281 116Z " transform="matrix(0.4434255069293031,-0.38546391238308064,0.38546391238308064,0.4434255069293031,129.87574556038632,206.06555852176794)"></path><path d="M661 213H711C739 213 761 235 761 263H711C683 263 661 241 661 213Z " transform="matrix(-0.2637704910821119,0.18469408621297195,-0.18469408621297195,-0.2637704910821119,942.4980116780689,169.4598815801196)"></path><path d="M331 20H381C409 20 431 42 431 70H381C353 70 331 48 331 20Z " transform="matrix(0.3061815025710612,-0.4714781683772823,0.4714781683772823,0.3061815025710612,243.128329943448,210.85501453604678)"></path><path d="M507 651H557C585 651 607 673 607 701H557C529 701 507 679 507 651Z " transform="matrix(-0.38397175509351,-0.06081515153091544,0.06081515153091544,-0.38397175509351,729.7612251521862,969.4389458459327)"></path><path d="M371 735H421C449 735 471 757 471 785H421C393 785 371 763 371 735Z " transform="matrix(-0.07811589725820672,-0.4932043646342022,0.4932043646342022,-0.07811589725820672,79.05147562371133,1027.0071194272364)"></path><path d="M273 744H323C351 744 373 766 373 794H323C295 794 273 772 273 744Z " transform="matrix(0.4106417539066818,-0.410641753906682,0.410641753906682,0.4106417539066818,-125.4207952660966,585.85377775762)"></path><path d="M468 566H518C546 566 568 588 568 616H518C490 616 468 594 468 566Z " transform="matrix(-0.37448646410915765,-0.17462590608948717,0.17462590608948717,-0.37448646410915765,608.7800779096567,902.7777196428665)"></path><path d="M233 466H283C311 466 333 488 333 516H283C255 516 233 494 233 466Z " transform="matrix(0.5423724742944629,-0.2763525787582919,0.2763525787582919,0.5423724742944629,-6.180526395654283,302.90289491001533)"></path><path d="M542 734H592C620 734 642 756 642 784H592C564 784 542 762 542 734Z " transform="matrix(-0.36629862718983364,0.03204697734421941,-0.03204697734421941,-0.36629862718983364,833.1724431006439,1018.0488474493059)"></path><path d="M142 676H192C220 676 242 698 242 726H192C164 726 142 704 142 676Z " transform="matrix(0.600638680421146,-0.17223037011902326,0.17223037011902326,0.600638680421146,-44.056116094295305,313.0205160876292)"></path><path d="M86 738H136C164 738 186 760 186 788H136C108 788 86 766 86 738Z " transform="matrix(0.5659981518560665,-0.24025196148408046,0.24025196148408046,0.5659981518560665,-124.28799526477843,363.8176768956563)"></path><path d="M626 738H676C704 738 726 760 726 788H676C648 788 626 766 626 738Z " transform="matrix(-0.28950511713580107,0.1604753068702687,-0.1604753068702687,-0.28950511713580107,994.1481183258164,875.4110969303144)"></path><path d="M0 188H50C78 188 100 210 100 238H50C22 238 0 216 0 188Z " transform="matrix(0.35094492214530615,-0.4491890164605359,0.4491890164605359,0.35094492214530615,-63.22450661335945,160.7081824060766)"></path><path d="M89 231H139C167 231 189 253 189 281H139C111 281 89 259 89 231Z " transform="matrix(0.5659981518560665,-0.24025196148408046,0.24025196148408046,0.5659981518560665,-1.178245247917829,144.49949577113415)"></path><path d="M118 604H168C196 604 218 626 218 654H168C140 654 118 632 118 604Z " transform="matrix(0.5926105007210796,-0.19255082387872385,0.19255082387872385,0.5926105007210796,-52.67303234085864,288.5965334580665)"></path><path d="M-16 669H34C62 669 84 691 84 719H34C6 719 -16 697 -16 669Z " transform="matrix(0.27884049783886955,-0.4829659094647217,0.4829659094647217,0.27884049783886955,-310.65891809503836,516.905535421625)"></path><path d="M584 75H634C662 75 684 97 684 125H634C606 125 584 103 584 75Z " transform="matrix(-0.3302159654594669,-0.28705235938909585,0.28705235938909585,-0.3302159654594669,814.6516861623925,315.01279239863345)"></path><path d="M634 371H684C712 371 734 393 734 421H684C656 421 634 399 634 371Z " transform="matrix(-0.2766081957432189,0.17284398400687356,-0.17284398400687356,-0.2766081957432189,941.6462235550837,387.31156045361314)"></path><path d="M588 217H638C666 217 688 239 688 267H638C610 267 588 245 588 217Z " transform="matrix(-0.3202364001361606,0.12292723672148258,-0.12292723672148258,-0.3202364001361606,872.0592145734691,241.06963180464498)"></path><path d="M639 587H689C717 587 739 609 739 637H689C661 637 639 615 639 587Z " transform="matrix(-0.2766081957432189,0.17284398400687356,-0.17284398400687356,-0.2766081957432189,985.3635650792845,662.194710814114)"></path><path d="M382 563H432C460 563 482 585 482 613H432C404 613 382 591 382 563Z " transform="matrix(-0.07811589725820672,-0.4932043646342022,0.4932043646342022,-0.07811589725820672,175.7419012106344,846.9964331098008)"></path><path d="M705 439H755C783 439 805 461 805 489H755C727 489 705 467 705 439Z " transform="matrix(-0.23589732284749956,0.20506241423768412,-0.20506241423768412,-0.23589732284749956,1028.2514389561475,418.6342350517883)"></path><path d="M617 513H667C695 513 717 535 717 563H667C639 563 617 541 617 513Z " transform="matrix(-0.28950511713580107,0.1604753068702687,-0.1604753068702687,-0.28950511713580107,946.4356282257838,586.7167233365917)"></path><path d="M508 226H558C586 226 608 248 608 276H558C530 276 508 254 508 226Z " transform="matrix(-0.38397175509351,-0.06081515153091544,0.06081515153091544,-0.38397175509351,756.991636307919,381.3117650827219)"></path><path d="M291 601H341C369 601 391 623 391 651H341C313 651 291 629 291 601Z " transform="matrix(0.3424330532846221,-0.4544240101130241,0.4544240101130241,0.3424330532846221,-60.23910150080923,566.5954960923679)"></path><path d="M73 10H123C151 10 173 32 173 60H123C95 60 73 38 73 10Z " transform="matrix(0.03616679130997606,-0.5172092121001175,0.5172092121001175,0.03616679130997606,100.44916224536884,97.35089539246528)"></path><path d="M72 478H122C150 478 172 500 172 528H122C94 528 72 506 72 478Z " transform="matrix(0.5421867112261,-0.2762579277473848,0.2762579277473848,0.5421867112261,-83.10451642651876,263.98355143845265)"></path><path d="M197 605H247C275 605 297 627 297 655H247C219 655 197 633 197 605Z " transform="matrix(0.5827098450610214,-0.21208903881608235,0.21208903881608235,0.5827098450610214,-30.54542618420419,315.2787901991288)"></path><path d="M717 165H767C795 165 817 187 817 215H767C739 215 717 193 717 165Z " transform="matrix(-0.23047450835916009,0.20752017943414416,-0.20752017943414416,-0.23047450835916009,983.2027820039633,74.62217896225184)"></path><path d="M176 364H226C254 364 276 386 276 414H226C198 414 176 392 176 364Z " transform="matrix(0.5961206520582336,-0.1822523731853444,0.1822523731853444,0.5961206520582336,20.380559465740248,198.29810268923498)"></path><path d="M719 262H769C797 262 819 284 819 312H769C741 312 719 290 719 262Z " transform="matrix(-0.23047450835916009,0.20752017943414416,-0.20752017943414416,-0.23047450835916009,1005.7931884257935,193.56316591422205)"></path><path d="M403 403H453C481 403 503 425 503 453H453C425 453 403 431 403 403Z " transform="matrix(-0.22041290804180558,-0.4145363894581712,0.4145363894581712,-0.22041290804180558,375.42547265484063,710.1217090664443)"></path><path d="M611 444H661C689 444 711 466 711 494H661C633 494 611 472 611 444Z " transform="matrix(-0.3050625693899038,0.14225301232295282,-0.14225301232295282,-0.3050625693899038,929.3630211461912,518.0451038983931)"></path><path d="M101 154H151C179 154 201 176 201 204H151C123 204 101 182 101 154Z " transform="matrix(0.5716492406682862,-0.23096128520874112,0.23096128520874112,0.5716492406682862,23.33889460672414,111.54993998689667)"></path><path d="M634 136H684C712 136 734 158 734 186H684C656 186 634 164 634 136Z " transform="matrix(-0.35431726645497597,0.06247569380688257,-0.06247569380688257,-0.35431726645497597,936.4115969581117,175.31170533534345)"></path><path d="M646 292H696C724 292 746 314 746 342H696C668 342 646 320 646 292Z " transform="matrix(-0.2766081957432189,0.17284398400687356,-0.17284398400687356,-0.2766081957432189,943.3108471674592,284.3853851818164)"></path><path d="M550 387H600C628 387 650 409 650 437H600C572 437 550 415 550 387Z " transform="matrix(-0.36629862718983364,0.03204697734421941,-0.03204697734421941,-0.36629862718983364,832.9825309797186,543.6868479956797)"></path><path d="M415 322H465C493 322 515 344 515 372H465C437 372 415 350 415 322Z " transform="matrix(-0.22041290804180558,-0.4145363894581712,0.4145363894581712,-0.22041290804180558,423.6478750974542,616.2427001885561)"></path><path d="M245 21H295C323 21 345 43 345 71H295C267 71 245 49 245 21Z " transform="matrix(0.37767230997607515,-0.4344622936786573,0.4344622936786573,0.37767230997607515,163.6014030478396,156.79345037630443)"></path><path d="M708 523H758C786 523 808 545 808 573H758C730 573 708 551 708 523Z " transform="matrix(-0.23589732284749956,0.20506241423768412,-0.20506241423768412,-0.23589732284749956,1049.1843737206555,521.8344229282652)"></path><path d="M431 652H481C509 652 531 674 531 702H481C453 702 431 680 431 652Z " transform="matrix(-0.2799899822751394,-0.3583708349109533,0.3583708349109533,-0.2799899822751394,373.0581262396267,1038.9295895924379)"></path><path d="M263 397H313C341 397 363 419 363 447H313C285 447 263 425 263 397Z " transform="matrix(0.4659988260527636,-0.36407818476402876,0.36407818476402876,0.4659988260527636,13.501373475064838,339.30496723687475)"></path><path d="M229 673H279C307 673 329 695 329 723H279C251 723 229 701 229 673Z " transform="matrix(0.5423724742944629,-0.2763525787582919,0.2763525787582919,0.5423724742944629,-65.21602030144294,396.5263824160283)"></path><path d="M57 658H107C135 658 157 680 157 708H107C79 708 57 686 57 658Z " transform="matrix(0.5094612288429751,-0.31834670789004016,0.31834670789004016,0.5094612288429751,-164.94315297509576,369.10107844448237)"></path><path d="M713 352H763C791 352 813 374 813 402H763C735 402 713 380 713 352Z " transform="matrix(-0.23589732284749956,0.20506241423768412,-0.20506241423768412,-0.23589732284749956,1020.298187500249,309.4706686501544)"></path><path d="M621 13H671C699 13 721 35 721 63H671C643 63 621 41 621 13Z " transform="matrix(-0.22688799421766045,-0.4093167766664064,0.4093167766664064,-0.22688799421766045,807.6878066067268,321.27330092342976)"></path><path d="M381 96H431C459 96 481 118 481 146H431C403 146 381 124 381 96Z " transform="matrix(0.09171368998359364,-0.5201341826140107,0.5201341826140107,0.09171368998359364,328.5351635207759,334.0804762186238)"></path><path d="M353 179H403C431 179 453 201 453 229H403C375 229 353 207 353 179Z " transform="matrix(0.00897379306838486,-0.5141082605701548,0.5141082605701548,0.00897379306838486,294.5054762371293,409.35497522382184)"></path><path d="M363 642H413C441 642 463 664 463 692H413C385 692 363 670 363 642Z " transform="matrix(0.00897379306838486,-0.5141082605701548,0.5141082605701548,0.00897379306838486,66.3836136624638,873.3411916388612)"></path></g><g fill="none" stroke-width="3" stroke="#b33900"><path d="M237 541H287C315 541 337 563 337 591H287C259 591 237 569 237 541Z " transform="matrix(0.5094501807657815,-0.31833980428520436,0.31833980428520436,0.5094501807657815,-39.39253110520497,369.01472151642133)"></path><path d="M-5 350H45C73 350 95 372 95 400H45C17 400 -5 378 -5 350Z " transform="matrix(0.27884049783886955,-0.4829659094647217,0.4829659094647217,0.27884049783886955,-148.66003845201976,292.1682792363364)"></path><path d="M158 18H208C236 18 258 40 258 68H208C180 68 158 46 158 18Z " transform="matrix(0.31542852300239976,-0.46764201655898163,0.46764201655898163,0.31542852300239976,122.28226050346464,126.706112955165)"></path><path d="M180 742H230C258 742 280 764 280 792H230C202 792 180 770 180 742Z " transform="matrix(0.5961206520582336,-0.1822523731853444,0.1822523731853444,0.5961206520582336,-46.89532020655287,351.69350570396404)"></path><path d="M477 407H527C555 407 577 429 577 457H527C499 457 477 435 477 407Z " transform="matrix(-0.37448646410915765,-0.17462590608948717,0.17462590608948717,-0.37448646410915765,648.9159751548676,685.8060050043159)"></path><path d="M339 446H389C417 446 439 468 439 496H389C361 496 339 474 339 446Z " transform="matrix(0.10088787283117878,-0.5190231113363444,0.5190231113363444,0.10088787283117878,105.29473202925328,625.3818022063527)"></path><path d="M542 145H592C620 145 642 167 642 195H592C564 195 542 173 542 145Z " transform="matrix(-0.3812022573384183,-0.033350876027603484,0.033350876027603484,-0.3812022573384183,812.0020874196509,254.54810235587237)"></path><path d="M426 487H476C504 487 526 509 526 537H476C448 537 426 515 426 487Z " transform="matrix(-0.2799899822751394,-0.3583708349109533,0.3583708349109533,-0.2799899822751394,425.7893640885583,825.939388342485)"></path><path d="M-4 270H46C74 270 96 292 96 320H46C18 320 -4 298 -4 270Z " transform="matrix(0.27884049783886955,-0.4829659094647217,0.4829659094647217,0.27884049783886955,-109.30160619268088,234.9584849729107)"></path><path d="M708 11H758C786 11 808 33 808 61H758C730 61 708 39 708 11Z " transform="matrix(-0.31865245605257686,-0.307719099874678,0.307719099874678,-0.31865245605257686,988.4606740923647,280.7225661228987)"></path><path d="M-6 108H44C72 108 94 130 94 158H44C16 158 -6 136 -6 108Z " transform="matrix(0.03616679130997606,-0.5172092121001175,0.5172092121001175,0.03616679130997606,-26.38016402695456,150.94702208817836)"></path><path d="M-10 593H40C68 593 90 615 90 643H40C12 643 -10 621 -10 593Z " transform="matrix(0.27884049783886955,-0.4829659094647217,0.4829659094647217,0.27884049783886955,-269.6265519627528,464.99520871416746)"></path><path d="M424 238H474C502 238 524 260 524 288H474C446 288 424 266 424 238Z " transform="matrix(-0.2799899822751394,-0.3583708349109533,0.3583708349109533,-0.2799899822751394,512.4637220168353,506.5051410861535)"></path><path d="M714 729H764C792 729 814 751 814 779H764C736 779 714 757 714 729Z " transform="matrix(-0.23589732284749956,0.20506241423768412,-0.20506241423768412,-0.23589732284749956,1098.8426149907034,775.198896949424)"></path><path d="M255 308H305C333 308 355 330 355 358H305C277 358 255 336 255 308Z " transform="matrix(0.4659988260527636,-0.36407818476402876,0.36407818476402876,0.4659988260527636,41.63232252748554,288.8662372774585)"></path><path d="M448 157H498C526 157 548 179 548 207H498C470 207 448 185 448 157Z " transform="matrix(-0.2902527782365022,-0.3459097912238019,0.3459097912238019,-0.2902527782365022,579.5903015590462,407.08908166849676)"></path><path d="M491 313H541C569 313 591 335 591 363H541C513 363 491 341 491 313Z " transform="matrix(-0.3830841640148024,-0.1171205825202666,0.1171205825202666,-0.3830841640148024,708.661775840158,530.8446825804674)"></path><path d="M522 11H572C600 11 622 33 622 61H572C544 61 522 39 522 11Z " transform="matrix(-0.09469070520688516,-0.4871414477471401,0.4871414477471401,-0.09469070520688516,608.6259912594412,318.053773498812)"></path><path d="M-7 431H43C71 431 93 453 93 481H43C15 481 -7 459 -7 431Z " transform="matrix(0.27884049783886955,-0.4829659094647217,0.4829659094647217,0.27884049783886955,-189.22259612298444,349.6162670924585)"></path><path d="M61 559H111C139 559 161 581 161 609H111C83 609 61 587 61 559Z " transform="matrix(0.5094612288429751,-0.31834670789004016,0.31834670789004016,0.5094612288429751,-131.46467380935366,321.81112693149703)"></path><path d="M340 268H390C418 268 440 290 440 318H390C362 318 340 296 340 268Z " transform="matrix(0.10088787283117878,-0.5190231113363444,0.5190231113363444,0.10088787283117878,198.57995797429137,465.85886668163886)"></path><path d="M482 82H532C560 82 582 104 582 132H532C504 132 482 110 482 82Z " transform="matrix(-0.20036742424122134,-0.4296893279299732,0.4296893279299732,-0.20036742424122134,592.6187116078227,357.0340368525564)"></path><path d="M80 394H130C158 394 180 416 180 444H130C102 444 80 422 80 394Z " transform="matrix(0.5421867112261,-0.2762579277473848,0.2762579277473848,0.5421867112261,-56.23634418554724,227.73729860342416)"></path><path d="M719 616H769C797 616 819 638 819 666H769C741 666 719 644 719 616Z " transform="matrix(-0.23047450835916009,0.20752017943414416,-0.20752017943414416,-0.23047450835916009,1079.2553319454805,629.1511418733647)"></path><path d="M306 683H356C384 683 406 705 406 733H356C328 733 306 711 306 683Z " transform="matrix(0.26970593747771826,-0.48656239109005334,0.48656239109005334,0.26970593747771826,-84.5014866338255,690.2644074938344)"></path><path d="M-3 740H47C75 740 97 762 97 790H47C19 790 -3 768 -3 740Z " transform="matrix(0.27884049783886955,-0.4829659094647217,0.4829659094647217,0.27884049783886955,-335.5744241389389,574.3864168981067)"></path><path d="M457 734H507C535 734 557 756 557 784H507C479 784 457 762 457 734Z " transform="matrix(-0.3535909103203866,-0.23850008048916732,0.23850008048916732,-0.3535909103203866,505.24903044115797,1148.2950417411812)"></path><path d="M586 655H636C664 655 686 677 686 705H636C608 705 586 683 586 655Z " transform="matrix(-0.3202364001361606,0.12292723672148258,-0.12292723672148258,-0.3202364001361606,923.2608714572063,819.5790295377262)"></path><path d="M424 14H474C502 14 524 36 524 64H474C446 64 424 42 424 14Z " transform="matrix(0.10112075548286717,-0.5202211887173376,0.5202211887173376,0.10112075548286717,405.7801355411448,281.6411339881862)"></path><path d="M701 84H751C779 84 801 106 801 134H751C723 134 701 112 701 84Z " transform="matrix(-0.38501707993797457,-0.07483973902164513,0.07483973902164513,-0.38501707993797457,1031.9902954800596,207.1715057184947)"></path><path d="M524 484H574C602 484 624 506 624 534H574C546 534 524 512 524 484Z " transform="matrix(-0.377548360645388,-0.013184279274084805,0.013184279274084805,-0.377548360645388,784.0019608599434,708.7398918718272)"></path><path d="M153 443H203C231 443 253 465 253 493H203C175 493 153 471 153 443Z " transform="matrix(0.600726851533253,-0.17225565277857718,0.17225565277857718,0.600726851533253,0.4368036383755225,221.82773099648875)"></path><path d="M175 273H225C253 273 275 295 275 323H225C197 323 175 301 175 273Z " transform="matrix(0.5961206520582336,-0.1822523731853444,0.1822523731853444,0.5961206520582336,36.56164607766482,161.36282965334888)"></path><path d="M316 515H366C394 515 416 537 416 565H366C338 565 316 543 316 515Z " transform="matrix(0.26970593747771826,-0.48656239109005334,0.48656239109005334,0.26970593747771826,4.543935694526283,572.4406289009917)"></path><path d="M551 571H601C629 571 651 593 651 621H601C573 621 551 599 551 571Z " transform="matrix(-0.35195625688558074,0.0684133660163735,-0.0684133660163735,-0.35195625688558074,853.3000765339926,764.6494961279657)"></path><path d="M151 527H201C229 527 251 549 251 577H201C173 577 151 555 151 527Z " transform="matrix(0.600726851533253,-0.17225565277857718,0.17225565277857718,0.600726851533253,-14.831217491958455,255.02216416213832)"></path><path d="M188 100H238C266 100 288 122 288 150H238C210 150 188 128 188 100Z " transform="matrix(0.5543604713652893,-0.25850253317604965,0.25850253317604965,0.5543604713652893,73.74939116805493,117.22854397523864)"></path><path d="M569 301H619C647 301 669 323 669 351H619C591 351 569 329 569 301Z " transform="matrix(-0.3367516862899545,0.09656199219014226,-0.09656199219014226,-0.3367516862899545,858.9285032674682,376.0091765648271)"></path><path d="M267 215H317C345 215 367 237 367 265H317C289 265 267 243 267 215Z " transform="matrix(0.4659988260527636,-0.36407818476402876,0.36407818476402876,0.4659988260527636,81.89960779790704,243.57306631753386)"></path><path d="M-11 512H39C67 512 89 534 89 562H39C11 562 -11 540 -11 512Z " transform="matrix(0.27884049783886955,-0.4829659094647217,0.4829659094647217,0.27884049783886955,-231.22747279827144,406.0983231296512)"></path><path d="M666 667H716C744 667 766 689 766 717H716C688 717 666 695 666 667Z " transform="matrix(-0.2637704910821119,0.18469408621297195,-0.18469408621297195,-0.2637704910821119,1032.6679792741686,742.2882141003336)"></path><path d="M334 354H384C412 354 434 376 434 404H384C356 404 334 382 334 354Z " transform="matrix(0.10088787283117878,-0.5190231113363444,0.5190231113363444,0.10088787283117878,148.54929763635286,540.0683709501395)"></path><path d="M-9 20H41C69 20 91 42 91 70H41C13 70 -9 48 -9 20Z " transform="matrix(-0.31384722418701916,-0.31384722418701905,0.31384722418701905,-0.31384722418701916,39.74461110325193,71.99086128008365)"></path><path d="M82 83H132C160 83 182 105 182 133H132C104 133 82 111 82 83Z " transform="matrix(0.3515808831424552,-0.450003009417238,0.450003009417238,0.3515808831424552,36.9909984081342,129.42966186369023)"></path><path d="M188 186H238C266 186 288 208 288 236H238C210 236 188 214 188 186Z " transform="matrix(0.5827098450610214,-0.21208903881608235,0.21208903881608235,0.5827098450610214,54.564269685283534,138.5254139303521)"></path></g></svg>