<svg width="577" height="136" viewBox="0 0 577 136" fill="none" xmlns="http://www.w3.org/2000/svg">
<path d="M174.48 62.224C174.48 58.8 173.744 55.904 172.272 53.536C170.8 51.136 168.368 49.328 164.976 48.112C161.584 46.864 156.992 46.24 151.2 46.24H141.408V43.36H159.744C165.664 43.36 170.432 44.176 174.048 45.808C177.696 47.408 180.352 49.584 182.016 52.336C183.712 55.088 184.56 58.176 184.56 61.6C184.56 65.12 183.696 68.368 181.968 71.344C180.24 74.288 177.552 76.64 173.904 78.4C170.256 80.16 165.536 81.04 159.744 81.04H141.408V78.16H157.44C160.672 78.16 163.568 77.568 166.128 76.384C168.72 75.168 170.752 73.376 172.224 71.008C173.728 68.64 174.48 65.712 174.48 62.224ZM147.744 43.36V108.592L156.336 110.608V112H129.264V110.608L137.856 108.592V46.72L129.264 44.752V43.36H147.744ZM219.184 80.032L219.712 82.048C215.2 83.456 211.536 84.8 208.72 86.08C205.936 87.36 203.808 88.64 202.336 89.92C200.864 91.2 199.856 92.544 199.312 93.952C198.768 95.36 198.496 96.912 198.496 98.608C198.496 101.36 199.296 103.44 200.896 104.848C202.496 106.224 204.448 106.912 206.752 106.912C208.608 106.912 210.224 106.56 211.6 105.856C212.976 105.12 214.048 104.064 214.816 102.688C215.616 101.28 216.016 99.568 216.016 97.552V75.52C216.016 72.224 215.2 69.728 213.568 68.032C211.968 66.336 209.52 65.488 206.224 65.488C204.656 65.488 203.072 65.616 201.472 65.872C199.904 66.096 198.672 66.432 197.776 66.88L200.32 64.96C200.224 66.144 200.064 67.376 199.84 68.656C199.648 69.904 199.392 71.04 199.072 72.064C198.784 73.088 198.432 73.856 198.016 74.368C197.6 74.88 196.96 75.28 196.096 75.568C195.264 75.856 194.4 76 193.504 76C192.352 76 191.424 75.776 190.72 75.328C190.048 74.848 189.712 74.112 189.712 73.12C189.712 71.776 190.352 70.448 191.632 69.136C192.912 67.792 194.56 66.576 196.576 65.488C198.624 64.4 200.816 63.536 203.152 62.896C205.52 62.224 207.776 61.888 209.92 61.888C213.536 61.888 216.432 62.416 218.608 63.472C220.784 64.528 222.368 66.016 223.36 67.936C224.352 69.824 224.848 72.048 224.848 74.608V103.072C224.848 104.128 225.008 104.976 225.328 105.616C225.68 106.256 226.16 106.72 226.768 107.008C227.376 107.296 228.064 107.44 228.832 107.44C229.92 107.44 230.992 107.264 232.048 106.912C233.136 106.56 234.256 105.984 235.408 105.184V106.48C233.04 109.296 230.944 111.088 229.12 111.856C227.296 112.592 225.424 112.96 223.504 112.96C221.616 112.96 220.128 112.544 219.04 111.712C217.952 110.848 217.168 109.616 216.688 108.016C216.24 106.416 215.968 104.496 215.872 102.256H216.016C215.472 104.304 214.592 106.144 213.376 107.776C212.16 109.376 210.688 110.64 208.96 111.568C207.232 112.496 205.328 112.96 203.248 112.96C199.28 112.96 195.968 111.904 193.312 109.792C190.656 107.68 189.328 104.608 189.328 100.576C189.328 98.464 189.68 96.608 190.384 95.008C191.12 93.376 192.512 91.824 194.56 90.352C196.64 88.88 199.648 87.328 203.584 85.696C207.552 84.064 212.752 82.176 219.184 80.032ZM267.116 61.984C268.524 61.984 269.644 62.384 270.476 63.184C271.308 63.984 271.724 65.088 271.724 66.496C271.724 68.192 271.196 69.568 270.14 70.624C269.116 71.648 267.804 72.16 266.204 72.16C265.5 72.16 264.78 72.08 264.044 71.92C263.34 71.728 262.588 71.552 261.788 71.392C260.988 71.2 260.092 71.104 259.1 71.104C258.172 71.104 257.292 71.28 256.46 71.632C255.628 71.952 254.812 72.4 254.012 72.976C253.212 73.552 252.38 74.24 251.516 75.04V72.928C253.916 70.4 255.932 68.4 257.564 66.928C259.228 65.456 260.62 64.368 261.74 63.664C262.86 62.96 263.836 62.512 264.668 62.32C265.5 62.096 266.316 61.984 267.116 61.984ZM252.092 70.72V109.264L259.916 110.704V112H236.396V110.704L243.26 109.264V70.912C242.844 70.656 242.332 70.336 241.724 69.952C241.116 69.568 240.364 69.104 239.468 68.56C238.604 67.984 237.58 67.328 236.396 66.592V65.728L251.9 61.36H252.092V70.72ZM304.965 80.032L305.493 82.048C300.981 83.456 297.317 84.8 294.501 86.08C291.717 87.36 289.589 88.64 288.117 89.92C286.645 91.2 285.637 92.544 285.093 93.952C284.549 95.36 284.277 96.912 284.277 98.608C284.277 101.36 285.077 103.44 286.677 104.848C288.277 106.224 290.229 106.912 292.533 106.912C294.389 106.912 296.005 106.56 297.381 105.856C298.757 105.12 299.829 104.064 300.597 102.688C301.397 101.28 301.797 99.568 301.797 97.552V75.52C301.797 72.224 300.981 69.728 299.349 68.032C297.749 66.336 295.301 65.488 292.005 65.488C290.437 65.488 288.853 65.616 287.253 65.872C285.685 66.096 284.453 66.432 283.557 66.88L286.101 64.96C286.005 66.144 285.845 67.376 285.621 68.656C285.429 69.904 285.173 71.04 284.853 72.064C284.565 73.088 284.213 73.856 283.797 74.368C283.381 74.88 282.741 75.28 281.877 75.568C281.045 75.856 280.181 76 279.285 76C278.133 76 277.205 75.776 276.501 75.328C275.829 74.848 275.493 74.112 275.493 73.12C275.493 71.776 276.133 70.448 277.413 69.136C278.693 67.792 280.341 66.576 282.357 65.488C284.405 64.4 286.597 63.536 288.933 62.896C291.301 62.224 293.557 61.888 295.701 61.888C299.317 61.888 302.213 62.416 304.389 63.472C306.565 64.528 308.149 66.016 309.141 67.936C310.133 69.824 310.629 72.048 310.629 74.608V103.072C310.629 104.128 310.789 104.976 311.109 105.616C311.461 106.256 311.941 106.72 312.549 107.008C313.157 107.296 313.845 107.44 314.613 107.44C315.701 107.44 316.773 107.264 317.829 106.912C318.917 106.56 320.037 105.984 321.189 105.184V106.48C318.821 109.296 316.725 111.088 314.901 111.856C313.077 112.592 311.205 112.96 309.285 112.96C307.397 112.96 305.909 112.544 304.821 111.712C303.733 110.848 302.949 109.616 302.469 108.016C302.021 106.416 301.749 104.496 301.653 102.256H301.797C301.253 104.304 300.373 106.144 299.157 107.776C297.941 109.376 296.469 110.64 294.741 111.568C293.013 112.496 291.109 112.96 289.029 112.96C285.061 112.96 281.749 111.904 279.093 109.792C276.437 107.68 275.109 104.608 275.109 100.576C275.109 98.464 275.461 96.608 276.165 95.008C276.901 93.376 278.293 91.824 280.341 90.352C282.421 88.88 285.429 87.328 289.365 85.696C293.333 84.064 298.533 82.176 304.965 80.032ZM358.917 74.992C358.917 71.856 357.765 69.28 355.461 67.264C353.157 65.216 350.309 64.192 346.917 64.192C343.781 64.192 341.109 65.04 338.901 66.736C336.693 68.4 335.013 70.848 333.861 74.08C332.709 77.312 332.133 81.28 332.133 85.984C332.133 90.56 332.693 94.368 333.813 97.408C334.933 100.416 336.613 102.672 338.853 104.176C341.093 105.648 343.909 106.384 347.301 106.384C350.021 106.384 352.533 105.92 354.837 104.992C357.173 104.064 359.413 102.464 361.557 100.192L362.277 101.152C360.261 103.424 358.389 105.328 356.661 106.864C354.933 108.368 353.301 109.568 351.765 110.464C350.229 111.36 348.757 112 347.349 112.384C345.941 112.768 344.581 112.96 343.269 112.96C339.077 112.96 335.445 112 332.373 110.08C329.301 108.128 326.917 105.424 325.221 101.968C323.557 98.48 322.725 94.432 322.725 89.824C322.725 85.408 323.365 81.472 324.645 78.016C325.925 74.56 327.733 71.632 330.069 69.232C332.405 66.832 335.173 65.008 338.373 63.76C341.573 62.512 345.093 61.888 348.933 61.888C350.821 61.888 352.725 62.032 354.645 62.32C356.565 62.576 358.437 62.992 360.261 63.568C362.117 64.144 363.813 64.88 365.349 65.776L358.917 67.12V48.88C358.533 48.72 357.893 48.432 356.997 48.016C356.101 47.6 355.125 47.152 354.069 46.672C353.013 46.192 352.021 45.744 351.093 45.328V44.464L368.277 40.768H368.421L367.749 48.208V107.152C368.037 107.28 368.501 107.472 369.141 107.728C369.781 107.984 370.485 108.272 371.253 108.592C372.021 108.88 372.773 109.184 373.509 109.504C374.245 109.792 374.869 110.032 375.381 110.224V111.28L359.157 113.248H358.917V106.528V74.992ZM389.083 54.304C387.067 54.304 385.467 53.616 384.283 52.24C383.131 50.864 382.555 49.328 382.555 47.632C382.555 45.936 383.131 44.48 384.283 43.264C385.467 42.016 387.067 41.392 389.083 41.392C391.099 41.392 392.651 42.016 393.739 43.264C394.859 44.48 395.419 45.936 395.419 47.632C395.419 49.328 394.859 50.864 393.739 52.24C392.651 53.616 391.099 54.304 389.083 54.304ZM394.267 61.36V70.72V109.264L401.131 110.704V112H378.571V110.704L385.435 109.264V70.912C385.083 70.688 384.555 70.352 383.851 69.904C383.147 69.456 382.331 68.944 381.403 68.368C380.507 67.792 379.563 67.2 378.571 66.592V65.728L394.075 61.36H394.267ZM424.014 134.32C420.238 134.32 417.022 134.016 414.366 133.408C411.71 132.832 409.55 132.016 407.886 130.96C406.222 129.904 405.006 128.688 404.238 127.312C403.47 125.936 403.086 124.48 403.086 122.944C403.086 121.728 403.39 120.544 403.998 119.392C404.638 118.24 405.662 117.136 407.07 116.08C408.478 115.056 410.35 114.08 412.686 113.152C415.054 112.224 417.966 111.392 421.422 110.656H424.638V111.52C420.958 112.064 418.062 112.848 415.95 113.872C413.87 114.928 412.382 116.128 411.486 117.472C410.622 118.848 410.19 120.304 410.19 121.84C410.19 124.048 410.814 125.92 412.062 127.456C413.342 128.992 415.134 130.16 417.438 130.96C419.774 131.792 422.542 132.208 425.742 132.208C429.518 132.208 432.638 131.76 435.102 130.864C437.598 129.968 439.454 128.752 440.67 127.216C441.918 125.68 442.542 123.952 442.542 122.032C442.542 120.592 442.19 119.36 441.486 118.336C440.814 117.344 439.71 116.496 438.174 115.792C436.638 115.12 434.606 114.56 432.078 114.112C429.582 113.696 426.51 113.36 422.862 113.104C419.918 112.816 417.486 112.384 415.566 111.808C413.678 111.2 412.19 110.464 411.102 109.6C410.046 108.704 409.294 107.712 408.846 106.624C408.43 105.504 408.222 104.272 408.222 102.928C408.222 100.496 409.326 98.448 411.534 96.784C413.742 95.088 416.718 93.728 420.462 92.704L421.134 93.856C418.83 94.016 417.23 94.608 416.334 95.632C415.47 96.624 415.038 97.632 415.038 98.656C415.038 99.584 415.214 100.384 415.566 101.056C415.95 101.728 416.622 102.304 417.582 102.784C418.574 103.232 419.966 103.632 421.758 103.984C423.582 104.304 425.934 104.592 428.814 104.848C432.43 105.168 435.534 105.68 438.126 106.384C440.718 107.056 442.846 107.936 444.51 109.024C446.206 110.08 447.454 111.344 448.254 112.816C449.054 114.288 449.454 115.984 449.454 117.904C449.454 120.752 448.526 123.424 446.67 125.92C444.814 128.416 441.998 130.432 438.222 131.968C434.478 133.536 429.742 134.32 424.014 134.32ZM424.638 94.528C421.214 94.528 418.11 93.824 415.326 92.416C412.574 91.008 410.382 89.088 408.75 86.656C407.15 84.192 406.35 81.392 406.35 78.256C406.35 75.088 407.15 72.272 408.75 69.808C410.382 67.344 412.574 65.408 415.326 64C418.11 62.592 421.214 61.888 424.638 61.888C427.326 61.888 429.79 62.304 432.03 63.136C434.302 63.936 436.27 65.072 437.934 66.544C439.598 68.016 440.878 69.744 441.774 71.728C442.702 73.712 443.166 75.888 443.166 78.256C443.166 81.392 442.366 84.192 440.766 86.656C439.166 89.088 436.974 91.008 434.19 92.416C431.406 93.824 428.222 94.528 424.638 94.528ZM426.222 92.896C429.294 92.512 431.518 90.816 432.894 87.808C434.27 84.8 434.718 81.216 434.238 77.056C433.79 72.736 432.59 69.344 430.638 66.88C428.686 64.384 426.158 63.264 423.054 63.52C420.238 63.808 418.126 65.472 416.718 68.512C415.31 71.552 414.814 75.136 415.23 79.264C415.646 83.456 416.83 86.848 418.782 89.44C420.766 92 423.246 93.152 426.222 92.896ZM430.782 63.76L428.814 62.272C433.038 62.592 436.446 62.72 439.038 62.656C441.662 62.592 443.694 62.432 445.134 62.176C446.574 61.92 447.646 61.68 448.35 61.456C449.054 61.232 449.614 61.12 450.03 61.12C450.542 61.12 450.958 61.328 451.278 61.744C451.63 62.128 451.806 62.784 451.806 63.712C451.806 65.664 451.294 67.168 450.27 68.224C449.246 69.28 448.174 69.808 447.054 69.808C446.35 69.808 445.614 69.552 444.846 69.04C444.11 68.496 443.166 67.856 442.014 67.12C440.894 66.384 439.438 65.696 437.646 65.056C435.854 64.416 433.566 63.984 430.782 63.76ZM469.498 70.72V109.264L476.362 110.704V112H453.802V110.704L460.666 109.264V70.912C460.154 70.592 459.418 70.144 458.458 69.568C457.53 68.96 455.978 67.968 453.802 66.592V65.728L469.306 61.36H469.498V70.72ZM498.682 76.672V109.264L505.546 110.704V112H482.938V110.704L489.85 109.264V77.632C489.85 75.648 489.498 74 488.794 72.688C488.122 71.376 487.066 70.384 485.626 69.712C484.218 69.04 482.394 68.704 480.154 68.704C477.882 68.704 475.69 69.024 473.578 69.664C471.466 70.272 469.706 70.928 468.298 71.632L467.722 70.336C470.09 68.576 472.138 67.152 473.866 66.064C475.594 64.944 477.13 64.08 478.474 63.472C479.818 62.864 481.098 62.448 482.314 62.224C483.53 62 484.81 61.888 486.154 61.888C489.098 61.888 491.482 62.416 493.306 63.472C495.162 64.496 496.522 66.096 497.386 68.272C498.25 70.448 498.682 73.248 498.682 76.672ZM527.866 76.672V109.264L534.73 110.704V112H512.122V110.704L519.034 109.264V77.632C519.034 75.648 518.682 74 517.978 72.688C517.306 71.376 516.25 70.384 514.81 69.712C513.402 69.04 511.578 68.704 509.338 68.704C507.066 68.704 504.874 69.024 502.762 69.664C500.65 70.272 498.89 70.928 497.482 71.632L496.906 70.336C499.274 68.576 501.322 67.152 503.05 66.064C504.778 64.944 506.314 64.08 507.658 63.472C509.002 62.864 510.282 62.448 511.498 62.224C512.714 62 513.994 61.888 515.338 61.888C519.754 61.888 522.938 63.072 524.89 65.44C526.874 67.776 527.866 71.52 527.866 76.672ZM558.428 61.888C560.604 61.888 562.572 62.128 564.332 62.608C566.092 63.056 567.9 63.744 569.756 64.672L571.244 77.824H569.756L563.564 64.72L567.308 69.04C565.58 67.184 563.98 65.888 562.508 65.152C561.068 64.384 559.308 64 557.228 64C554.444 64 552.284 64.64 550.748 65.92C549.212 67.2 548.444 69.056 548.444 71.488C548.444 72.8 548.7 74.016 549.212 75.136C549.724 76.256 550.78 77.376 552.38 78.496C554.012 79.584 556.508 80.784 559.868 82.096C562.364 83.056 564.428 84.096 566.06 85.216C567.724 86.336 569.02 87.536 569.948 88.816C570.908 90.064 571.58 91.424 571.964 92.896C572.348 94.336 572.54 95.888 572.54 97.552C572.54 100.592 571.692 103.28 569.996 105.616C568.332 107.92 566.124 109.728 563.372 111.04C560.62 112.32 557.596 112.96 554.3 112.96C551.868 112.96 549.676 112.72 547.724 112.24C545.772 111.76 543.9 111.04 542.108 110.08L539.372 94.96H541.052L549.02 110.56L546.62 108.016C547.452 108.624 548.316 109.136 549.212 109.552C550.14 109.936 551.084 110.24 552.044 110.464C553.036 110.656 554.028 110.752 555.02 110.752C557.708 110.752 560.14 109.968 562.316 108.4C564.492 106.8 565.58 104.4 565.58 101.2C565.58 99.984 565.388 98.864 565.004 97.84C564.62 96.816 563.98 95.856 563.084 94.96C562.188 94.032 560.972 93.136 559.436 92.272C557.9 91.408 555.964 90.544 553.628 89.68C550.524 88.496 548.092 87.184 546.332 85.744C544.572 84.304 543.324 82.704 542.588 80.944C541.884 79.184 541.532 77.248 541.532 75.136C541.532 72.288 542.316 69.888 543.884 67.936C545.452 65.952 547.516 64.448 550.076 63.424C552.636 62.4 555.42 61.888 558.428 61.888Z" fill="white"/>
<rect width="36.16" height="17.16" transform="matrix(0.884968 0.465652 0 1 0 68)" fill="#702300"/>
<rect width="36.16" height="17.16" transform="matrix(0.884968 0.465652 0 1 32 34)" fill="#702300"/>
<rect width="36.16" height="17.16" transform="matrix(0.884968 0.465652 0 1 64 0)" fill="#702300"/>
<rect width="36.1595" height="17.1622" transform="matrix(0.884968 -0.465652 0 1 0 118.838)" fill="#B23800"/>
<rect width="36.1595" height="17.1622" transform="matrix(0.884968 -0.465652 0 1 0 50.8378)" fill="#B23800"/>
<rect width="36.1595" height="17.1622" transform="matrix(0.884968 -0.465652 0 1 32 16.8378)" fill="#B23800"/>
<rect width="36.1595" height="17.1622" transform="matrix(0.884968 -0.465652 0 1 64 50.8378)" fill="#B23800"/>
</svg>
